<svg width="417" height="383" viewBox="0 0 417 383" fill="none" xmlns="http://www.w3.org/2000/svg">
<path d="M81.6 54.4C88 59.3333 92.6 67.6 95.4 79.2C98.2 90.8 99.6 104.2 99.6 119.4C99.6 122.733 99.4667 126.933 99.2 132C98.8 136.133 98.6 141.067 98.6 146.8C98.6 154.267 97.7333 160.667 96 166L96.2 165.6C95.1333 169.6 93.7333 173.4 92 177C94.2667 179.267 95.4 181.4 95.4 183.4C95.4 186.467 93.6 189.4 90 192.2C86.5333 195.133 83 196.6 79.4 196.6C78.6 196.6 77.4 196 75.8 194.8C74.3333 193.733 73 192.533 71.8 191.2C69.4 192.667 66.4 193.867 62.8 194.8C59.3333 195.867 55.8667 196.4 52.4 196.4C44.2667 196.4 37.7333 195.067 32.8 192.4C27.8667 189.733 22.4667 185.467 16.6 179.6C11.5333 174.667 8.13333 169 6.4 162.6C4.8 156.067 4 148.067 4 138.6V110.8C4 101.467 4.26667 93.0667 4.8 85.6C5.46667 78 6.66667 71.0667 8.4 64.8C10.2667 58.8 15.1333 53.8667 23 50C30.8667 46.1333 40.0667 44.2 50.6 44.2C58.7333 44.2 65 44.8 69.4 46C73.9333 47.2 78 50 81.6 54.4ZM93 136.2C93.4 130.867 93.6 123.933 93.6 115.4C93.6 96.3333 91.6667 80.7333 87.8 68.6C84.8667 61.6667 81.7333 56.6667 78.4 53.6C75.2 50.4 71.5333 48.4 67.4 47.6C63.4 46.6667 57.8 46.2 50.6 46.2C40.6 46.2 31.8667 48 24.4 51.6C16.9333 55.2 12.2667 59.8 10.4 65.4C8.53333 71.9333 7.33333 79 6.8 86.6C6.26667 94.0667 6 102.8 6 112.8V142C6 155.467 9.33333 166.933 16 176.4C22.8 185.733 33.6 190.4 48.4 190.4C52.2667 190.4 56.1333 189.8 60 188.6C63.8667 187.4 66.5333 185.933 68 184.2C68.9333 185.533 70.2 186.933 71.8 188.4C73.4 189.867 74.6 190.6 75.4 190.6C78.3333 190.6 81.4 189.333 84.6 186.8C87.8 184.267 89.4 181.8 89.4 179.4C89.4 178.467 88.8 177.333 87.6 176C86.5333 174.667 85.8667 173.8 85.6 173.4C88.8 165.8 90.6667 160 91.2 156C91.8667 153.2 92.3333 148.8 92.6 142.8L93 136.2ZM51.8 146.8C51 147.333 50 147.933 48.8 148.6C47.6 149.267 46.6667 149.933 46 150.6C45.4667 151.133 45.2 152 45.2 153.2C45.2 154.933 45.9333 156.8 47.4 158.8C49 160.8 51.1333 163.133 53.8 165.8C53.5333 165.933 52.9333 166 52 166H50.2C45.2667 166 41.3333 165.067 38.4 163.2C35.6 161.333 33.5333 158.133 32.2 153.6C31 149.067 30.4 142.8 30.4 134.8C30.4 122.8 30.4667 114.4 30.6 109.6C30.7333 104.8 31.2 98.7333 32 91.4C32.4 86.6 33 83.2 33.8 81.2C34.6 79.0667 36.1333 77.6667 38.4 77C40.8 76.3333 44.6667 76 50 76C55.8667 76 60.0667 77.4 62.6 80.2C65.1333 82.8667 66.6667 86.8667 67.2 92.2C67.7333 98.0667 68.1333 103.8 68.4 109.4C68.6667 114.867 68.8 121.867 68.8 130.4C68.8 139.733 68.1333 147.133 66.8 152.6C65.8667 151.667 64.7333 150 63.4 147.6C62.4667 145.867 61.6667 144.6 61 143.8C60.4667 143 59.7333 142.6 58.8 142.6C57.4667 142.6 56.1333 143.2 54.8 144.4C53.4667 145.467 52.4667 146.267 51.8 146.8ZM65.6 145.6C65.6 145.067 65.6667 144.067 65.8 142.6C65.9333 141.133 66.1333 140.067 66.4 139.4V139.8C66.5333 138.333 66.6 135.667 66.6 131.8V116.8C66.6 108.4 66.4 101.6 66 96.4C65.7333 91.2 64.6667 87.0667 62.8 84C60.5333 82.6667 57.6 82 54 82C49.2 82 45.8 82.3333 43.8 83C41.8 83.5333 40.4 84.7333 39.6 86.6C38.9333 88.3333 38.4 91.3333 38 95.6C37.0667 106.267 36.6 115.867 36.6 124.4V129.6L36.4 140C36.4 148.133 37 154.2 38.2 158.2L38 158C38.6667 160.4 40 162 42 162.8C44 163.6 46.4667 164 49.4 164C45.2667 159.867 43.2 156.267 43.2 153.2C43.2 151.467 43.5333 150.267 44.2 149.6C45 148.8 46.2 147.933 47.8 147C49.9333 145.8 51.4667 144.733 52.4 143.8C53.3333 143 54.3333 142.267 55.4 141.6C56.6 140.933 57.7333 140.6 58.8 140.6C59.7333 140.6 60.4667 140.8 61 141.2C61.5333 141.6 62.2 142.333 63 143.4C63.9333 144.467 64.8 145.2 65.6 145.6ZM198.823 59.2C199.49 73.4667 199.823 86.3333 199.823 97.8C199.823 120.867 198.69 142.6 196.423 163C195.09 173.4 190.69 181.867 183.223 188.4C175.757 194.933 166.49 198.2 155.423 198.2C147.023 198.2 138.957 196.6 131.223 193.4C123.49 190.333 117.157 185.867 112.223 180C107.29 174.133 104.69 167.333 104.423 159.6C104.423 150 104.557 135.6 104.823 116.4C105.223 101.6 105.423 86.6 105.423 71.4C105.423 61.9333 105.357 55.1333 105.223 51C108.557 51 111.09 50.9333 112.823 50.8L121.223 50.6C127.49 50.6 132.89 51.2667 137.423 52.6L137.223 55.6C137.623 55.7333 138.29 55.8667 139.223 56C140.157 56.1333 140.89 56.3333 141.423 56.6C140.89 66.6 140.623 78.4667 140.623 92.2C140.623 111.4 141.49 132.733 143.223 156.2V155.8C143.49 157.267 144.09 158.267 145.023 158.8C146.09 159.2 147.423 159.4 149.023 159.4C151.557 159.4 153.823 158.667 155.823 157.2C157.823 155.733 159.157 153.667 159.823 151V151.4C160.49 136.2 160.823 117.867 160.823 96.4C161.09 76.9333 161.357 62.4 161.623 52.8C168.823 51.7333 175.69 51.2 182.223 51.2C185.023 51.2 187.357 51.4 189.223 51.8C191.09 52.0667 192.69 52.6667 194.023 53.6L194.823 55.2V56.2C196.29 56.6 197.357 57.0667 198.023 57.6L198.823 59.2ZM181.823 53.2C176.89 53.2 170.823 53.6667 163.623 54.6C163.49 60.2 163.357 67 163.223 75C163.09 82.8667 163.023 88.9333 163.023 93.2C162.757 119.2 162.357 138.6 161.823 151.4C161.157 154.467 159.557 156.933 157.023 158.8C154.623 160.533 151.957 161.4 149.023 161.4C146.357 161.4 143.89 160.667 141.623 159.2C139.49 157.6 138.023 155.333 137.223 152.4C135.49 131.6 134.623 110.2 134.623 88.2C134.623 75.5333 134.89 64.2 135.423 54.2V54C131.823 53.0667 127.357 52.6 122.023 52.6L113.623 52.8C112.157 52.9333 110.023 53 107.223 53H107.023L107.223 53.2L107.423 72C107.423 86.6667 107.223 101.4 106.823 116.2C106.557 135.4 106.423 149.867 106.423 159.6C106.557 166.667 108.823 172.667 113.223 177.6C117.623 182.533 123.223 186.2 130.023 188.6C136.823 191 143.957 192.2 151.423 192.2C162.623 192.2 171.623 189.2 178.423 183.2C185.223 177.2 189.223 169.067 190.423 158.8C192.69 140 193.823 118.333 193.823 93.8C193.823 82.3333 193.49 69.4667 192.823 55.2C190.69 53.8667 187.023 53.2 181.823 53.2ZM246.4 50.4H250.4V53.2C250.4 63.7333 250.333 73 250.2 81C250.067 89 249.933 95.6667 249.8 101C249.267 122.6 249 139 249 150.2C249 164.733 249.4 178.933 250.2 192.8C248.067 194.933 243.2 196 235.6 196L226.6 195.8C224.6 195.667 221.8 195.6 218.2 195.6C215.267 195.6 212.4 195.933 209.6 196.6L209.8 191.8C207.533 192.067 206.133 192.333 205.6 192.6C206.533 178.867 207 166.333 207 155C207 147.4 206.933 140.733 206.8 135C206.667 129.133 206.533 124.333 206.4 120.6C205.867 105.4 205.6 93.8667 205.6 86C205.6 72.9333 206.267 59.5333 207.6 45.8C209.467 45.5333 210.667 45.4 211.2 45.4C214.933 45.4 218.8 45.5333 222.8 45.8C225.867 46.2 229.867 46.4 234.8 46.4H246.4V50.4ZM235 48.4C231.8 48.4 226.6 48.2 219.4 47.8C215.4 47.5333 212.333 47.4 210.2 47.4H209.4V47.8C208.2 58.6 207.6 71.2667 207.6 85.8C207.6 93.5333 207.667 100.267 207.8 106C207.933 111.733 208.067 116.533 208.2 120.4C208.733 136.133 209 148.067 209 156.2C209 167.4 208.6 178.6 207.8 189.8C209.667 189.533 211.2 189.4 212.4 189.4C214 189.4 216.933 189.533 221.2 189.8C226 190.067 229.733 190.2 232.4 190.2C238.8 190.2 242.733 189.467 244.2 188C243.4 173.6 243 159.067 243 144.4C243 133.467 243.267 117.467 243.8 96.4C243.933 91.0667 244.067 84.4667 244.2 76.6C244.333 68.7333 244.4 59.6 244.4 49.2V48.4H235ZM347.953 87.2C343.686 94.5333 339.086 101.8 334.153 109C329.22 116.2 322.486 125.867 313.953 138L301.353 155.8C307.22 155.267 314.886 155 324.353 155H335.153L339.353 154.8C340.42 154.8 341.286 155.067 341.953 155.6C342.62 156.133 343.086 157.267 343.353 159H346.753C347.42 163 347.753 167.533 347.753 172.6C347.753 175.267 347.62 178.6 347.353 182.6C347.086 186.467 346.886 189.267 346.753 191L346.353 195.6C329.82 194.667 314.62 194.2 300.753 194.2C285.286 194.2 272.22 194.533 261.553 195.2C261.02 193.867 260.62 192.467 260.353 191C258.886 191 257.953 191.067 257.553 191.2C255.82 186.8 254.953 181.733 254.953 176L255.153 170.2C255.286 168.867 255.353 166.933 255.353 164.4C255.353 162.667 255.22 160.2 254.953 157C259.22 147.267 264.486 137.667 270.753 128.2C277.02 118.733 285.286 106.933 295.553 92.8L299.953 87C293.686 86.4667 286.82 86.0667 279.353 85.8C271.886 85.5333 265.62 85.4 260.553 85.4C260.286 84.8667 260.02 84.2 259.753 83.4C259.486 82.6 259.22 81.9333 258.953 81.4H256.553C255.22 79.1333 254.553 75.2667 254.553 69.8C254.553 64.0667 254.353 59.8 253.953 57C253.553 54.0667 252.286 51.5333 250.153 49.4C264.686 48.0667 278.62 47.4 291.953 47.4C297.286 47.4 305.553 47.5333 316.753 47.8C328.486 48.0667 337.553 48.2 343.953 48.2L344.353 52.2H347.953C348.353 55.2667 348.553 58.9333 348.553 63.2C348.553 68.1333 348.486 71.8667 348.353 74.4V74.2C348.22 76.8667 348.153 80.8 348.153 86L347.953 87.2ZM342.353 71.4C342.62 66.3333 342.753 62.5333 342.753 60C342.753 56.6667 342.553 53.4 342.153 50.2C336.153 50.2 327.553 50.0667 316.353 49.8L291.553 49.6C285.286 49.6 278.886 49.6667 272.353 49.8C265.82 49.9333 259.886 50.3333 254.553 51L254.953 51.8V52C255.753 54.6667 256.153 58.6 256.153 63.8V68.2C256.153 73.8 256.686 77.5333 257.753 79.4C263.486 79.4 271.553 79.6667 281.953 80.2C292.353 80.7333 300.353 81.3333 305.953 82L296.353 95.4C286.886 108.467 279.02 119.733 272.753 129.2C266.486 138.667 261.22 148 256.953 157.2C257.086 158.667 257.153 160.867 257.153 163.8L256.953 175.6C256.953 181.067 257.553 185.6 258.753 189.2C273.02 188.533 285.686 188.2 296.753 188.2C311.953 188.2 326.553 188.6 340.553 189.4V189C341.22 182.067 341.553 175.333 341.553 168.8C341.553 164.667 341.353 160.733 340.953 157V156.4C336.553 156.667 332.82 156.8 329.753 156.8C326.82 156.8 324.353 156.867 322.353 157C317.553 157 312.62 157.133 307.553 157.4C302.486 157.667 296.82 158.2 290.553 159L290.753 158.8C296.086 150.533 302.953 140.533 311.353 128.8C325.353 108.8 335.62 93.2667 342.153 82.2V82L342.353 71.4Z" fill="black"/>
<path d="M216.223 330.176C216.223 331.348 215.93 332.285 215.344 332.988C214.816 333.691 213.879 334.043 212.531 334.043C211.828 334.043 211.096 333.955 210.334 333.779C209.572 333.662 208.84 333.457 208.137 333.164C206.672 332.754 205.5 332.373 204.621 332.021C203.801 331.67 203.156 331.201 202.688 330.615C202.277 330.088 202.014 329.385 201.896 328.506C201.779 327.627 201.691 326.426 201.633 324.902C201.164 312.891 200.637 300.996 200.051 289.219C199.523 277.383 198.645 265.488 197.414 253.535C196.594 257.578 195.803 261.621 195.041 265.664C194.279 269.707 193.488 273.809 192.668 277.969C191.848 282.305 191.057 286.729 190.295 291.24C189.592 295.752 188.449 300.117 186.867 304.336C186.223 306.035 185.432 307.383 184.494 308.379C183.557 309.316 182.121 309.785 180.188 309.785C178.781 309.785 177.639 309.551 176.76 309.082C175.881 308.555 175.031 307.793 174.211 306.797C173.449 305.977 172.629 304.395 171.75 302.051C170.871 299.707 169.934 296.982 168.938 293.877C168 290.713 167.062 287.344 166.125 283.77C165.188 280.195 164.309 276.768 163.488 273.486C162.668 270.146 161.936 267.1 161.291 264.346C160.646 261.592 160.148 259.512 159.797 258.105V270.059C159.797 277.852 159.943 285.615 160.236 293.35C160.529 301.084 161.027 308.789 161.73 316.465C161.906 318.164 162.141 319.863 162.434 321.562C162.785 323.262 162.961 324.961 162.961 326.66C162.961 328.184 162.434 329.18 161.379 329.648C160.383 330.117 159.27 330.352 158.039 330.352C154.699 330.352 152.121 329.648 150.305 328.242C148.547 326.777 147.668 324.316 147.668 320.859C147.668 313.77 147.492 306.738 147.141 299.766C146.789 292.793 146.613 285.762 146.613 278.672C146.613 277.676 146.613 275.947 146.613 273.486C146.672 271.025 146.73 268.125 146.789 264.785C146.848 261.387 146.906 257.725 146.965 253.799C147.082 249.814 147.199 245.801 147.316 241.758C147.434 237.715 147.551 233.789 147.668 229.98C147.785 226.113 147.902 222.656 148.02 219.609C148.137 216.562 148.254 214.043 148.371 212.051C148.547 210 148.723 208.77 148.898 208.359C149.191 207.539 149.514 207.012 149.865 206.777C150.275 206.543 150.891 206.426 151.711 206.426C153.938 206.426 155.783 206.924 157.248 207.92C158.771 208.857 159.797 210.469 160.324 212.754C161.145 213.984 162.082 216.24 163.137 219.521C164.191 222.744 165.305 226.523 166.477 230.859C167.648 235.195 168.82 239.883 169.992 244.922C171.223 249.902 172.365 254.707 173.42 259.336C174.533 263.965 175.529 268.213 176.408 272.08C177.346 275.947 178.078 278.906 178.605 280.957C180.305 270.879 182.033 260.859 183.791 250.898C185.549 240.938 187.219 230.918 188.801 220.84C189.094 219.141 189.387 217.471 189.68 215.83C190.031 214.189 190.207 212.52 190.207 210.82C190.207 209.766 190.061 208.799 189.768 207.92C189.475 206.982 189.328 206.016 189.328 205.02C189.328 203.789 189.709 203.057 190.471 202.822C191.291 202.529 192.199 202.383 193.195 202.383C194.133 202.383 195.246 202.529 196.535 202.822C197.824 203.115 199.055 203.555 200.227 204.141C201.457 204.727 202.482 205.459 203.303 206.338C204.182 207.217 204.621 208.242 204.621 209.414C204.621 211.465 204.445 213.633 204.094 215.918C206.203 225.82 207.961 235.752 209.367 245.713C210.773 255.615 211.828 265.605 212.531 275.684C213.234 284.355 213.791 292.969 214.201 301.523C214.67 310.078 215.227 318.633 215.871 327.188C215.988 327.715 216.076 328.213 216.135 328.682C216.193 329.15 216.223 329.648 216.223 330.176ZM262.102 328.857C262.102 330.029 261.809 330.82 261.223 331.23C260.637 331.699 259.816 331.934 258.762 331.934C256.008 331.934 254.016 331.201 252.785 329.736C251.613 328.271 250.734 326.338 250.148 323.936C249.973 323.115 249.797 322.295 249.621 321.475C249.445 320.596 249.299 319.746 249.182 318.926C249.064 318.164 248.947 317.637 248.83 317.344C248.713 317.051 248.596 316.494 248.479 315.674C247.775 317.373 246.896 319.16 245.842 321.035C244.846 322.852 243.674 324.551 242.326 326.133C240.979 327.656 239.455 328.916 237.756 329.912C236.115 330.908 234.299 331.406 232.307 331.406C230.197 331.406 228.439 330.908 227.033 329.912C225.627 328.857 224.514 327.568 223.693 326.045C222.932 324.463 222.375 322.734 222.023 320.859C221.73 318.984 221.584 317.197 221.584 315.498C221.584 311.514 221.965 307.207 222.727 302.578C223.547 297.891 224.66 293.232 226.066 288.604C227.473 283.916 229.113 279.434 230.988 275.156C232.863 270.82 234.914 267.041 237.141 263.818V263.906L237.668 263.115C238.312 262.236 239.045 261.299 239.865 260.303C240.744 259.248 241.77 258.721 242.941 258.721C244.055 258.721 245.021 259.219 245.842 260.215C246.662 261.152 247.248 262.148 247.6 263.203C249.123 263.496 250.354 263.877 251.291 264.346C252.229 264.756 252.961 265.283 253.488 265.928C254.016 266.572 254.367 267.334 254.543 268.213C254.719 269.033 254.807 269.941 254.807 270.938C254.807 271.348 254.807 271.787 254.807 272.256C254.807 272.725 254.777 273.193 254.719 273.662C254.66 274.131 254.631 274.688 254.631 275.332C254.631 275.977 254.631 276.562 254.631 277.09C254.631 277.676 254.719 278.438 254.895 279.375C255.129 280.312 255.363 281.279 255.598 282.275L256.213 285.527C256.506 287.227 256.74 289.16 256.916 291.328C257.15 293.496 257.414 295.664 257.707 297.832C257.941 300.059 258.176 302.227 258.41 304.336C258.645 306.387 258.879 308.291 259.113 310.049L261.223 323.057L261.486 324.551C261.604 325.312 261.721 326.016 261.838 326.66C262.014 327.305 262.102 328.037 262.102 328.857ZM241.975 278.32C241.975 278.203 241.945 278.027 241.887 277.793C241.828 277.5 241.77 277.207 241.711 276.914C240.363 279.785 239.162 282.92 238.107 286.318C237.111 289.658 236.262 293.086 235.559 296.602C234.914 300.059 234.416 303.545 234.064 307.061C233.771 310.518 233.625 313.799 233.625 316.904C233.625 317.197 233.625 317.461 233.625 317.695C233.625 317.93 233.654 318.164 233.713 318.398V318.486C235.119 316.318 236.32 313.477 237.316 309.961C238.371 306.387 239.25 302.666 239.953 298.799C240.656 294.873 241.154 291.094 241.447 287.461C241.799 283.77 241.975 280.723 241.975 278.32ZM297.521 265.576C297.521 266.279 297.258 266.865 296.73 267.334C296.262 267.803 295.676 268.213 294.973 268.564C294.27 268.857 293.537 269.062 292.775 269.18C292.072 269.297 291.486 269.355 291.018 269.355C290.314 269.355 289.641 269.297 288.996 269.18C288.352 269.004 287.707 268.828 287.062 268.652C286.418 268.477 285.803 268.33 285.217 268.213C284.631 268.037 284.016 267.949 283.371 267.949C282.492 267.949 281.613 268.096 280.734 268.389C279.855 268.682 279.064 269.092 278.361 269.619C277.658 270.146 277.072 270.791 276.604 271.553C276.193 272.314 275.988 273.164 275.988 274.102C275.988 275.508 276.281 276.914 276.867 278.32C277.453 279.668 278.215 281.045 279.152 282.451C280.148 283.857 281.262 285.293 282.492 286.758C283.781 288.164 285.129 289.6 286.535 291.064C288.234 292.939 289.934 294.844 291.633 296.777C293.391 298.711 294.943 300.732 296.291 302.842C297.697 304.951 298.84 307.178 299.719 309.521C300.598 311.865 301.037 314.326 301.037 316.904C301.037 319.131 300.656 321.123 299.895 322.881C299.191 324.639 298.166 326.133 296.818 327.363C295.529 328.594 293.947 329.531 292.072 330.176C290.256 330.879 288.264 331.23 286.096 331.23C285.51 331.23 284.602 331.113 283.371 330.879C282.199 330.645 280.852 330.322 279.328 329.912C277.805 329.443 276.223 328.945 274.582 328.418C273 327.891 271.535 327.334 270.188 326.748C268.898 326.104 267.814 325.488 266.936 324.902C266.115 324.258 265.705 323.672 265.705 323.145C265.705 322.441 266.027 321.738 266.672 321.035C267.316 320.273 268.078 319.6 268.957 319.014C269.836 318.369 270.744 317.842 271.682 317.432C272.678 317.021 273.498 316.816 274.143 316.816C275.021 316.816 275.93 317.021 276.867 317.432C277.863 317.842 278.859 318.311 279.855 318.838C280.969 319.424 282.082 319.951 283.195 320.42C284.367 320.889 285.568 321.123 286.799 321.123C287.736 321.123 288.264 320.801 288.381 320.156C288.557 319.512 288.645 318.779 288.645 317.959C288.645 315.908 288.293 313.975 287.59 312.158C286.887 310.283 285.979 308.467 284.865 306.709C283.752 304.951 282.463 303.252 280.998 301.611C279.533 299.912 278.068 298.242 276.604 296.602C275.08 294.961 273.586 293.32 272.121 291.68C270.715 290.039 269.455 288.369 268.342 286.67C267.229 284.912 266.32 283.125 265.617 281.309C264.973 279.492 264.65 277.559 264.65 275.508C264.65 272.988 265.207 270.732 266.32 268.74C267.434 266.689 268.869 264.932 270.627 263.467C272.443 262.002 274.465 260.889 276.691 260.127C278.977 259.307 281.262 258.896 283.547 258.896C284.309 258.896 285.48 259.072 287.062 259.424C288.645 259.717 290.197 260.156 291.721 260.742C293.244 261.328 294.592 262.031 295.764 262.852C296.936 263.672 297.521 264.58 297.521 265.576ZM324.855 327.803C324.855 328.447 324.709 329.004 324.416 329.473C324.123 329.883 323.742 330.205 323.273 330.439C322.863 330.674 322.395 330.82 321.867 330.879C321.398 330.996 320.93 331.055 320.461 331.055C319.816 331.055 319.055 330.967 318.176 330.791C317.355 330.674 316.535 330.469 315.715 330.176C314.895 329.883 314.133 329.531 313.43 329.121C312.785 328.652 312.287 328.096 311.936 327.451C311.584 326.865 311.262 325.781 310.969 324.199C310.734 322.559 310.529 320.684 310.354 318.574C310.178 316.406 310.031 314.121 309.914 311.719C309.797 309.258 309.68 306.914 309.562 304.688C309.504 302.461 309.445 300.469 309.387 298.711C309.387 296.895 309.387 295.547 309.387 294.668C309.387 290.566 309.445 286.611 309.562 282.803C309.738 278.936 309.914 274.98 310.09 270.938C309.797 270.938 309.504 270.967 309.211 271.025C308.918 271.084 308.625 271.113 308.332 271.113C307.57 271.23 306.779 271.318 305.959 271.377C305.197 271.436 304.406 271.465 303.586 271.465C302.59 271.465 301.711 271.289 300.949 270.938C300.188 270.586 299.807 269.795 299.807 268.564C299.807 267.1 300.129 265.928 300.773 265.049C301.418 264.17 302.238 263.496 303.234 263.027C304.23 262.5 305.314 262.148 306.486 261.973C307.658 261.738 308.801 261.562 309.914 261.445C310.09 261.445 310.207 261.445 310.266 261.445C310.324 261.387 310.441 261.357 310.617 261.357C310.676 260.654 310.734 259.805 310.793 258.809C310.852 257.754 310.91 256.611 310.969 255.381C311.027 253.447 311.115 251.396 311.232 249.229C311.35 247.002 311.467 244.893 311.584 242.9C311.701 240.85 311.848 239.062 312.023 237.539C312.199 235.957 312.375 234.844 312.551 234.199C312.844 233.438 313.166 232.822 313.518 232.354C313.928 231.885 314.66 231.65 315.715 231.65C318.059 231.65 319.875 232.412 321.164 233.936C322.453 235.459 323.098 237.334 323.098 239.561C323.098 242.139 323.01 244.717 322.834 247.295C322.717 249.873 322.6 252.48 322.482 255.117L322.219 259.6C323.684 259.424 325.148 259.16 326.613 258.809C328.02 258.516 329.426 258.252 330.832 258.018C332.297 257.783 333.703 257.666 335.051 257.666C336.223 257.666 337.131 257.988 337.775 258.633C338.42 259.219 338.742 260.098 338.742 261.27C338.742 262.559 338.508 263.818 338.039 265.049C337.57 266.279 336.75 267.217 335.578 267.861H335.666C335.432 267.979 334.729 268.154 333.557 268.389C332.385 268.564 331.037 268.74 329.514 268.916C328.049 269.092 326.584 269.268 325.119 269.443C323.713 269.619 322.658 269.736 321.955 269.795H321.867C321.75 273.076 321.662 276.328 321.604 279.551C321.545 282.715 321.516 285.938 321.516 289.219C321.516 293.73 321.633 298.535 321.867 303.633C322.16 308.672 322.629 313.477 323.273 318.047L323.977 322.002C324.211 322.998 324.416 323.994 324.592 324.99C324.768 325.928 324.855 326.865 324.855 327.803ZM372.492 313.916C372.492 315.674 371.994 317.49 370.998 319.365C370.061 321.24 368.83 322.969 367.307 324.551C365.783 326.074 364.025 327.334 362.033 328.33C360.1 329.326 358.166 329.824 356.232 329.824C353.479 329.824 351.105 329.297 349.113 328.242C347.121 327.129 345.393 325.664 343.928 323.848C342.463 321.973 341.262 319.863 340.324 317.52C339.445 315.176 338.742 312.773 338.215 310.312C337.688 307.793 337.307 305.303 337.072 302.842C336.896 300.322 336.809 298.037 336.809 295.986C336.809 294.229 336.896 292.148 337.072 289.746C337.307 287.344 337.658 284.854 338.127 282.275C338.654 279.697 339.357 277.148 340.236 274.629C341.115 272.109 342.199 269.854 343.488 267.861C344.836 265.869 346.418 264.258 348.234 263.027C350.109 261.797 352.248 261.182 354.65 261.182C356.525 261.182 358.195 261.562 359.66 262.324C361.184 263.086 362.443 264.111 363.439 265.4C364.494 266.631 365.285 268.066 365.812 269.707C366.398 271.348 366.691 273.047 366.691 274.805C366.691 277.09 366.164 279.58 365.109 282.275C364.055 284.971 362.678 287.578 360.979 290.098C359.338 292.617 357.463 294.902 355.354 296.953C353.303 298.945 351.252 300.469 349.201 301.523C349.318 302.578 349.553 304.131 349.904 306.182C350.256 308.174 350.725 310.166 351.311 312.158C351.955 314.15 352.688 315.879 353.508 317.344C354.387 318.809 355.412 319.541 356.584 319.541C357.17 319.541 357.668 319.365 358.078 319.014C358.547 318.662 358.957 318.193 359.309 317.607C359.66 317.021 359.953 316.377 360.188 315.674C360.48 314.971 360.744 314.297 360.979 313.652L361.506 312.422C361.623 312.246 361.682 312.129 361.682 312.07C361.74 312.012 361.799 311.924 361.857 311.807C362.268 311.045 362.648 310.342 363 309.697C363.41 309.053 363.967 308.496 364.67 308.027H364.582C364.816 307.793 365.051 307.676 365.285 307.676C365.578 307.617 365.842 307.588 366.076 307.588C366.721 307.588 367.424 307.793 368.186 308.203C368.947 308.613 369.65 309.141 370.295 309.785C370.939 310.371 371.467 311.045 371.877 311.807C372.287 312.51 372.492 313.213 372.492 313.916ZM355.09 275.156C355.09 274.57 355.061 273.955 355.002 273.311C354.943 272.666 354.797 272.109 354.562 271.641C353.742 272.637 353.01 273.838 352.365 275.244C351.779 276.592 351.281 278.027 350.871 279.551C350.461 281.016 350.109 282.51 349.816 284.033C349.582 285.557 349.406 286.963 349.289 288.252C350.812 286.436 352.16 284.385 353.332 282.1C354.504 279.756 355.09 277.441 355.09 275.156ZM384.797 331.406C383.918 331.406 382.951 331.289 381.896 331.055C380.9 330.82 379.934 330.439 378.996 329.912C378.117 329.385 377.355 328.74 376.711 327.979C376.125 327.158 375.832 326.191 375.832 325.078C375.832 323.438 375.891 321.826 376.008 320.244C376.184 318.604 376.359 316.992 376.535 315.41V315.498L377.062 309.609C377.238 307.5 377.385 305.186 377.502 302.666C377.619 300.146 377.707 297.598 377.766 295.02C377.883 292.383 377.971 289.805 378.029 287.285C378.088 284.766 378.117 282.451 378.117 280.342C378.117 279.111 378.088 277.881 378.029 276.65C378.029 275.361 378.029 274.072 378.029 272.783C377.971 271.67 377.941 270.439 377.941 269.092C377.941 267.686 377.941 266.396 377.941 265.225C377.941 263.994 378.088 262.998 378.381 262.236C378.732 261.416 379.67 261.006 381.193 261.006C382.541 261.006 383.947 261.357 385.412 262.061C386.936 262.764 387.99 263.76 388.576 265.049H388.488C388.781 265.693 388.986 266.748 389.104 268.213C389.279 269.619 389.396 270.879 389.455 271.992C390.451 270.469 391.564 268.857 392.795 267.158C394.084 265.459 395.461 263.906 396.926 262.5C398.391 261.035 399.943 259.834 401.584 258.896C403.225 257.959 404.982 257.49 406.857 257.49C409.318 257.49 411.193 258.105 412.482 259.336C413.771 260.566 414.709 262.119 415.295 263.994C415.881 265.811 416.203 267.773 416.262 269.883C416.32 271.934 416.35 273.809 416.35 275.508V276.211C416.35 276.914 416.32 277.617 416.262 278.32C416.262 278.965 416.145 279.58 415.91 280.166C415.734 280.693 415.383 281.133 414.855 281.484C414.387 281.836 413.713 282.012 412.834 282.012C411.896 282.012 410.9 281.895 409.846 281.66C408.791 281.367 407.795 280.957 406.857 280.43C405.979 279.902 405.217 279.258 404.572 278.496C403.928 277.676 403.576 276.738 403.518 275.684C403.518 275.215 403.518 274.746 403.518 274.277C403.518 273.809 403.547 273.34 403.605 272.871C403.605 272.578 403.605 272.227 403.605 271.816C403.664 271.348 403.693 270.908 403.693 270.498C401.818 272.373 400.148 274.688 398.684 277.441C397.277 280.195 395.988 283.125 394.816 286.23C393.703 289.336 392.736 292.471 391.916 295.635C391.096 298.74 390.393 301.553 389.807 304.072V304.336C389.631 306.152 389.514 307.939 389.455 309.697C389.396 311.455 389.338 313.271 389.279 315.146C389.221 317.256 389.133 319.395 389.016 321.562C388.957 323.73 388.811 325.84 388.576 327.891C388.459 329.004 388.107 329.854 387.521 330.439C386.994 331.084 386.086 331.406 384.797 331.406Z" fill="black"/>
</svg>
