<svg width="526" height="266" viewBox="0 0 526 266" fill="none" xmlns="http://www.w3.org/2000/svg">
<path d="M50.56 109.232H29.824C27.776 109.232 26.2827 108.763 25.344 107.824C24.4053 106.885 23.936 105.392 23.936 103.344V41.776H6.4C4.352 41.776 2.85867 41.3067 1.92 40.368C0.981333 39.4293 0.512 37.936 0.512 35.888V20.4C0.512 19.2907 0.64 18.352 0.896 17.584C1.23733 16.816 1.70667 16.176 2.304 15.664L18.816 1.712C19.2427 1.37066 19.7973 1.11466 20.48 0.943993C21.248 0.687996 22.0587 0.559998 22.912 0.559998H90.496C92.544 0.559998 94.0373 1.02933 94.976 1.96799C95.9147 2.90666 96.384 4.4 96.384 6.448V21.936C96.384 23.0453 96.2133 23.984 95.872 24.752C95.616 25.52 95.1893 26.16 94.592 26.672L77.952 40.496C77.6107 40.8373 77.056 41.136 76.288 41.392C75.6053 41.648 74.8373 41.776 73.984 41.776H72.96V89.392C72.96 90.5013 72.7893 91.44 72.448 92.208C72.192 92.976 71.7653 93.616 71.168 94.128L54.528 107.952C54.1867 108.293 53.632 108.592 52.864 108.848C52.1813 109.104 51.4133 109.232 50.56 109.232ZM67.072 94C68.6933 94 69.8453 93.6587 70.528 92.976C71.296 92.208 71.68 91.0133 71.68 89.392V26.544H90.496C92.1173 26.544 93.2693 26.2027 93.952 25.52C94.72 24.752 95.104 23.5573 95.104 21.936V6.448C95.104 4.82667 94.72 3.67466 93.952 2.992C93.2693 2.224 92.1173 1.84 90.496 1.84H22.912C21.2907 1.84 20.096 2.224 19.328 2.992C18.6453 3.67466 18.304 4.82667 18.304 6.448V21.936C18.304 23.5573 18.6453 24.752 19.328 25.52C20.096 26.2027 21.2907 26.544 22.912 26.544H41.728V89.392C41.728 91.0133 42.0693 92.208 42.752 92.976C43.52 93.6587 44.7147 94 46.336 94H67.072ZM56.064 82.48V14.64H29.824V13.36H83.584V14.64H57.344V82.48H56.064ZM134.126 82.48V13.36H135.406V47.28H184.558V13.36H185.838V82.48H184.558V48.56H135.406V82.48H134.126ZM144.75 94C146.371 94 147.523 93.6587 148.206 92.976C148.974 92.208 149.358 91.0133 149.358 89.392V60.976H170.734V89.392C170.734 91.0133 171.075 92.208 171.758 92.976C172.526 93.6587 173.721 94 175.342 94H195.182C196.803 94 197.955 93.6587 198.638 92.976C199.406 92.208 199.79 91.0133 199.79 89.392V6.448C199.79 4.82667 199.406 3.67466 198.638 2.992C197.955 2.224 196.803 1.84 195.182 1.84H175.342C173.721 1.84 172.526 2.224 171.758 2.992C171.075 3.67466 170.734 4.82667 170.734 6.448V34.224H149.358V6.448C149.358 4.82667 148.974 3.67466 148.206 2.992C147.523 2.224 146.371 1.84 144.75 1.84H124.91C123.289 1.84 122.094 2.224 121.326 2.992C120.643 3.67466 120.302 4.82667 120.302 6.448V89.392C120.302 91.0133 120.643 92.208 121.326 92.976C122.094 93.6587 123.289 94 124.91 94H144.75ZM148.846 94.128L132.206 107.952C131.865 108.293 131.31 108.592 130.542 108.848C129.859 109.104 129.091 109.232 128.238 109.232H108.398C106.35 109.232 104.857 108.763 103.918 107.824C102.979 106.885 102.51 105.392 102.51 103.344V20.4C102.51 19.2907 102.638 18.352 102.894 17.584C103.235 16.816 103.705 16.176 104.302 15.664L120.814 1.712C121.241 1.37066 121.795 1.11466 122.478 0.943993C123.246 0.687996 124.057 0.559998 124.91 0.559998H144.75C146.798 0.559998 148.291 1.02933 149.23 1.96799C150.169 2.90666 150.638 4.4 150.638 6.448V32.944H152.942V20.4C152.942 19.2907 153.07 18.352 153.326 17.584C153.667 16.816 154.137 16.176 154.734 15.664L171.246 1.712C171.673 1.37066 172.227 1.11466 172.91 0.943993C173.678 0.687996 174.489 0.559998 175.342 0.559998H195.182C197.23 0.559998 198.723 1.02933 199.662 1.96799C200.601 2.90666 201.07 4.4 201.07 6.448V89.392C201.07 90.5013 200.899 91.44 200.558 92.208C200.302 92.976 199.875 93.616 199.278 94.128L182.638 107.952C182.297 108.293 181.742 108.592 180.974 108.848C180.291 109.104 179.523 109.232 178.67 109.232H158.83C156.782 109.232 155.289 108.763 154.35 107.824C153.411 106.885 152.942 105.392 152.942 103.344V76.208H150.638V89.392C150.638 90.5013 150.467 91.44 150.126 92.208C149.87 92.976 149.443 93.616 148.846 94.128ZM243.23 55.216V59.184H293.15V55.216C293.15 52.912 292.937 50.7787 292.51 48.816C292.169 46.8533 291.699 45.0187 291.102 43.312L282.27 22.448C281.331 20.2293 280.35 18.3947 279.326 16.944C278.302 15.408 276.595 14.64 274.206 14.64H261.662C259.102 14.64 257.31 15.408 256.286 16.944C255.262 18.3947 254.323 20.1867 253.47 22.32L245.278 43.312C244.681 45.0187 244.169 46.8533 243.742 48.816C243.401 50.7787 243.23 52.912 243.23 55.216ZM263.71 28.72C264.051 27.952 264.393 27.3973 264.734 27.056C265.161 26.7147 265.63 26.544 266.142 26.544H269.342C269.854 26.544 270.281 26.7147 270.622 27.056C271.049 27.3973 271.433 27.952 271.774 28.72L277.79 48.176H257.694L263.71 28.72ZM293.15 82.48V60.464H243.23V82.48H241.95V55.216C241.95 52.8267 242.121 50.6507 242.462 48.688C242.889 46.64 243.443 44.6773 244.126 42.8L252.318 21.808C253.257 19.4187 254.323 17.4133 255.518 15.792C256.713 14.1707 258.761 13.36 261.662 13.36H274.206C277.022 13.36 278.985 14.1707 280.094 15.792C281.289 17.4133 282.398 19.4613 283.422 21.936L292.254 42.8C292.937 44.6773 293.449 46.64 293.79 48.688C294.217 50.6507 294.43 52.8267 294.43 55.216V82.48H293.15ZM256.414 89.392V71.472H279.07V89.392C279.07 91.0133 279.454 92.208 280.222 92.976C281.075 93.6587 282.355 94 284.062 94H303.39C305.011 94 306.163 93.6587 306.846 92.976C307.614 92.208 307.998 91.0133 307.998 89.392V55.6C307.998 53.04 307.571 50.096 306.718 46.768C305.95 43.44 304.713 39.5573 303.006 35.12L291.87 6.064C291.358 4.61333 290.547 3.54666 289.438 2.864C288.414 2.18133 287.091 1.84 285.47 1.84H251.038C249.331 1.84 247.923 2.18133 246.814 2.864C245.79 3.54666 245.022 4.61333 244.51 6.064L233.374 35.12C231.667 39.5573 230.387 43.44 229.534 46.768C228.766 50.096 228.382 53.04 228.382 55.6V89.392C228.382 91.0133 228.723 92.208 229.406 92.976C230.174 93.6587 231.369 94 232.99 94H251.806C253.427 94 254.579 93.6587 255.262 92.976C256.03 92.208 256.414 91.0133 256.414 89.392ZM239.262 107.952C238.921 108.293 238.366 108.592 237.598 108.848C236.915 109.104 236.147 109.232 235.294 109.232H216.478C214.43 109.232 212.937 108.763 211.998 107.824C211.059 106.885 210.59 105.392 210.59 103.344V69.552C210.59 66.9067 210.974 63.92 211.742 60.592C212.595 57.1787 213.918 53.168 215.71 48.56L226.718 19.632C226.974 18.864 227.273 18.224 227.614 17.712C228.041 17.1147 228.467 16.6027 228.894 16.176L229.022 16.048L245.406 2.352C246.089 1.75466 246.899 1.328 247.838 1.072C248.777 0.730665 249.843 0.559998 251.038 0.559998H285.47C287.433 0.559998 289.011 0.986664 290.206 1.84C291.486 2.608 292.425 3.84533 293.022 5.55199L304.158 34.608C305.95 39.216 307.23 43.2267 307.998 46.64C308.851 49.968 309.278 52.9547 309.278 55.6V89.392C309.278 90.5013 309.107 91.44 308.766 92.208C308.51 92.976 308.083 93.616 307.486 94.128L290.846 107.952C290.505 108.293 289.95 108.592 289.182 108.848C288.499 109.104 287.731 109.232 286.878 109.232H267.55C265.417 109.232 263.838 108.72 262.814 107.696C261.79 106.757 261.278 105.307 261.278 103.344V86.704H257.694V89.392C257.694 90.5013 257.523 91.44 257.182 92.208C256.926 92.976 256.499 93.616 255.902 94.128L239.262 107.952ZM353.448 14.384L400.552 67.376V13.36H401.832V82.48H400.552V69.296L352.168 15.024C352.083 14.9387 351.955 14.8533 351.784 14.768C351.699 14.6827 351.613 14.64 351.528 14.64C351.443 14.64 351.357 14.6827 351.272 14.768C351.272 14.8533 351.272 14.9387 351.272 15.024V82.48H349.992V14.768C349.992 14.256 350.163 13.872 350.504 13.616C350.845 13.36 351.187 13.232 351.528 13.232C351.869 13.232 352.168 13.3173 352.424 13.488C352.68 13.6587 353.021 13.9573 353.448 14.384ZM360.36 94C361.981 94 363.133 93.6587 363.816 92.976C364.584 92.208 364.968 91.0133 364.968 89.392V47.152L386.856 73.648V89.392C386.856 91.0133 387.197 92.208 387.88 92.976C388.648 93.6587 389.843 94 391.464 94H410.664C412.285 94 413.437 93.6587 414.12 92.976C414.888 92.208 415.272 91.0133 415.272 89.392V6.448C415.272 4.82667 414.888 3.67466 414.12 2.992C413.437 2.224 412.285 1.84 410.664 1.84H391.464C389.843 1.84 388.648 2.224 387.88 2.992C387.197 3.67466 386.856 4.82667 386.856 6.448V33.712L362.024 5.296C360.915 4.016 359.763 3.12 358.568 2.60799C357.459 2.096 356.093 1.84 354.472 1.84H341.16C339.539 1.84 338.344 2.224 337.576 2.992C336.893 3.67466 336.552 4.82667 336.552 6.448V89.392C336.552 91.0133 336.893 92.208 337.576 92.976C338.344 93.6587 339.539 94 341.16 94H360.36ZM364.456 94.128L347.816 107.952C347.475 108.293 346.92 108.592 346.152 108.848C345.469 109.104 344.701 109.232 343.848 109.232H324.648C322.6 109.232 321.107 108.763 320.168 107.824C319.229 106.885 318.76 105.392 318.76 103.344V20.4C318.76 19.2907 318.888 18.352 319.144 17.584C319.485 16.816 319.955 16.176 320.552 15.664L337.064 1.712C337.491 1.37066 338.045 1.11466 338.728 0.943993C339.496 0.687996 340.307 0.559998 341.16 0.559998H354.472C356.349 0.559998 357.928 0.858663 359.208 1.45599C360.488 2.05333 361.768 3.03466 363.048 4.39999L371.88 14.64L387.368 1.712C387.795 1.37066 388.349 1.11466 389.032 0.943993C389.8 0.687996 390.611 0.559998 391.464 0.559998H410.664C412.712 0.559998 414.205 1.02933 415.144 1.96799C416.083 2.90666 416.552 4.4 416.552 6.448V89.392C416.552 90.5013 416.381 91.44 416.04 92.208C415.784 92.976 415.357 93.616 414.76 94.128L398.12 107.952C397.779 108.293 397.224 108.592 396.456 108.848C395.773 109.104 395.005 109.232 394.152 109.232H374.952C372.904 109.232 371.411 108.763 370.472 107.824C369.533 106.885 369.064 105.392 369.064 103.344V88.112L366.248 84.656V89.392C366.248 90.5013 366.077 91.44 365.736 92.208C365.48 92.976 365.053 93.616 364.456 94.128ZM460.909 82.48H459.629V13.36H460.909V47.408H488.685L503.405 13.36H504.813L490.093 47.408H495.341C500.546 47.408 504.429 48.3893 506.989 50.352C509.549 52.3147 510.829 55.5147 510.829 59.952V82.48H509.549V59.952C509.549 55.856 508.354 52.9547 505.965 51.248C503.576 49.5413 500.034 48.688 495.341 48.688H460.909V82.48ZM470.125 94C471.746 94 472.898 93.6587 473.581 92.976C474.349 92.208 474.733 91.0133 474.733 89.392V60.08H491.629C492.994 60.08 494.018 60.464 494.701 61.232C495.384 62 495.725 63.0667 495.725 64.432V89.392C495.725 91.0133 496.066 92.208 496.749 92.976C497.517 93.6587 498.712 94 500.333 94H520.045C521.666 94 522.818 93.6587 523.501 92.976C524.269 92.208 524.653 91.0133 524.653 89.392V53.296C524.653 48.176 523.202 44.08 520.301 41.008C517.485 37.8507 513.688 36.144 508.909 35.888L521.965 6.064C522.562 4.69866 522.605 3.67466 522.093 2.992C521.581 2.224 520.6 1.84 519.149 1.84H499.437C497.816 1.84 496.493 2.18133 495.469 2.864C494.445 3.46133 493.634 4.52799 493.037 6.064L479.853 35.888H474.733V6.448C474.733 4.82667 474.349 3.67466 473.581 2.992C472.898 2.224 471.746 1.84 470.125 1.84H450.285C448.664 1.84 447.469 2.224 446.701 2.992C446.018 3.67466 445.677 4.82667 445.677 6.448V89.392C445.677 91.0133 446.018 92.208 446.701 92.976C447.469 93.6587 448.664 94 450.285 94H470.125ZM474.221 94.128L457.581 107.952C457.24 108.293 456.685 108.592 455.917 108.848C455.234 109.104 454.466 109.232 453.613 109.232H433.773C431.725 109.232 430.232 108.763 429.293 107.824C428.354 106.885 427.885 105.392 427.885 103.344V20.4C427.885 19.2907 428.013 18.352 428.269 17.584C428.61 16.816 429.08 16.176 429.677 15.664L446.189 1.712C446.616 1.37066 447.17 1.11466 447.853 0.943993C448.621 0.687996 449.432 0.559998 450.285 0.559998H470.125C472.173 0.559998 473.666 1.02933 474.605 1.96799C475.544 2.90666 476.013 4.4 476.013 6.448V18.096C476.269 17.7547 476.525 17.4133 476.781 17.072C477.037 16.6453 477.336 16.304 477.677 16.048L494.189 2.09599C494.786 1.58399 495.512 1.19999 496.365 0.943993C497.304 0.687996 498.328 0.559998 499.437 0.559998H519.149C521.282 0.559998 522.69 1.11466 523.373 2.224C524.056 3.248 523.97 4.69866 523.117 6.576L510.829 34.736C515.437 35.3333 519.106 37.296 521.837 40.624C524.568 43.952 525.933 48.176 525.933 53.296V89.392C525.933 90.5013 525.762 91.44 525.421 92.208C525.165 92.976 524.738 93.616 524.141 94.128L507.501 107.952C507.16 108.293 506.605 108.592 505.837 108.848C505.154 109.104 504.386 109.232 503.533 109.232H483.821C481.773 109.232 480.28 108.763 479.341 107.824C478.402 106.885 477.933 105.392 477.933 103.344V78.384C477.933 77.5307 477.762 76.848 477.421 76.336C477.08 75.824 476.61 75.5253 476.013 75.44V89.392C476.013 90.5013 475.842 91.44 475.501 92.208C475.245 92.976 474.818 93.616 474.221 94.128ZM53.76 263.232H33.024C30.8907 263.232 29.3547 262.763 28.416 261.824C27.5627 260.885 27.136 259.392 27.136 257.344V241.344L7.808 215.488C5.76 212.757 4.39467 210.368 3.712 208.32C3.02933 206.272 2.688 203.157 2.688 198.976V174.4C2.688 173.291 2.816 172.352 3.072 171.584C3.41333 170.816 3.88267 170.176 4.48 169.664L20.992 155.712C21.4187 155.371 21.9733 155.115 22.656 154.944C23.424 154.688 24.2347 154.56 25.088 154.56H44.8C46.848 154.56 48.3413 155.029 49.28 155.968C50.2187 156.907 50.688 158.4 50.688 160.448V181.44C50.688 182.208 50.7307 182.976 50.816 183.744C50.9013 184.512 51.1573 185.323 51.584 186.176L53.12 188.352V174.4C53.12 173.291 53.248 172.352 53.504 171.584C53.8453 170.816 54.3147 170.176 54.912 169.664L71.424 155.712C71.8507 155.371 72.4053 155.115 73.088 154.944C73.856 154.688 74.6667 154.56 75.52 154.56H94.592C96.64 154.56 98.1333 155.029 99.072 155.968C100.011 156.907 100.48 158.4 100.48 160.448V185.024C100.48 189.205 100.139 192.32 99.456 194.368C98.7733 196.416 97.408 198.805 95.36 201.536L76.16 227.52V243.392C76.16 244.501 75.9893 245.44 75.648 246.208C75.392 246.976 74.9653 247.616 74.368 248.128L57.728 261.952C57.3867 262.293 56.832 262.592 56.064 262.848C55.3813 263.104 54.6133 263.232 53.76 263.232ZM70.272 248C71.8933 248 73.0453 247.659 73.728 246.976C74.496 246.208 74.88 245.013 74.88 243.392V227.136L94.336 200.768C96.2133 198.123 97.4933 195.819 98.176 193.856C98.8587 191.893 99.2 188.949 99.2 185.024V160.448C99.2 158.827 98.816 157.675 98.048 156.992C97.3653 156.224 96.2133 155.84 94.592 155.84H75.52C73.8987 155.84 72.704 156.224 71.936 156.992C71.2533 157.675 70.912 158.827 70.912 160.448V181.44C70.912 182.293 70.8693 183.189 70.784 184.128C70.6987 185.067 70.3573 185.963 69.76 186.816L63.872 196.032C63.4453 196.8 62.976 197.355 62.464 197.696C62.0373 198.037 61.4827 198.208 60.8 198.208H59.52C58.8373 198.208 58.24 198.037 57.728 197.696C57.3013 197.355 56.8747 196.8 56.448 196.032L50.56 186.816C49.9627 185.963 49.6213 185.067 49.536 184.128C49.4507 183.189 49.408 182.293 49.408 181.44V160.448C49.408 158.827 49.024 157.675 48.256 156.992C47.5733 156.224 46.4213 155.84 44.8 155.84H25.088C23.4667 155.84 22.272 156.224 21.504 156.992C20.8213 157.675 20.48 158.827 20.48 160.448V185.024C20.48 188.949 20.7787 191.893 21.376 193.856C22.0587 195.819 23.3813 198.123 25.344 200.768L44.928 227.008V243.392C44.928 245.013 45.2693 246.208 45.952 246.976C46.72 247.659 47.9147 248 49.536 248H70.272ZM61.44 214.592H60.544V236.48H59.264V214.592H57.984C56.1067 214.592 54.4 214.165 52.864 213.312C51.4133 212.459 50.0053 211.093 48.64 209.216L36.224 191.936C35.2853 190.656 34.7307 189.163 34.56 187.456C34.3893 185.749 34.304 183.957 34.304 182.08V167.36H35.584V182.08C35.584 183.872 35.6693 185.579 35.84 187.2C36.0107 188.736 36.5227 190.144 37.376 191.424L49.792 208.704C50.9013 210.411 52.1813 211.605 53.632 212.288C55.0827 212.971 56.5333 213.312 57.984 213.312H61.44C63.0613 213.312 64.512 212.971 65.792 212.288C67.1573 211.52 68.48 210.325 69.76 208.704L82.56 191.424C83.4133 190.315 83.9253 188.949 84.096 187.328C84.2667 185.621 84.352 183.872 84.352 182.08V167.36H85.632V182.08C85.632 183.957 85.5467 185.749 85.376 187.456C85.2907 189.077 84.736 190.571 83.712 191.936L70.912 209.216C69.5467 211.093 68.096 212.459 66.56 213.312C65.1093 214.165 63.4027 214.592 61.44 214.592ZM181.72 257.088C178.733 259.648 174.552 261.611 169.176 262.976C163.8 264.427 156.888 265.152 148.44 265.152C140.077 265.152 133.208 264.256 127.832 262.464C122.541 260.757 118.36 258.453 115.288 255.552C112.301 252.651 110.211 249.323 109.016 245.568C107.907 241.813 107.352 237.931 107.352 233.92V194.112C107.352 190.187 107.907 186.56 109.016 183.232C110.125 179.819 112.131 176.917 115.032 174.528L131.672 160.704C134.659 158.144 138.797 156.181 144.088 154.816C149.464 153.365 156.419 152.64 164.952 152.64C173.315 152.64 180.141 153.323 185.432 154.688C190.808 156.053 194.989 157.973 197.976 160.448C201.048 162.837 203.139 165.739 204.248 169.152C205.357 172.48 205.912 176.149 205.912 180.16V223.808C205.912 227.733 205.357 231.36 204.248 234.688C203.139 238.016 201.133 240.875 198.232 243.264L181.72 257.088ZM204.632 223.808V180.16C204.632 176.235 204.035 172.693 202.84 169.536C201.731 166.293 199.683 163.52 196.696 161.216C193.795 158.912 189.741 157.12 184.536 155.84C179.416 154.56 172.888 153.92 164.952 153.92C157.016 153.92 150.445 154.56 145.24 155.84C140.035 157.12 135.939 158.912 132.952 161.216C130.051 163.52 128.003 166.293 126.808 169.536C125.699 172.693 125.144 176.235 125.144 180.16V223.808C125.144 227.733 125.699 231.317 126.808 234.56C128.003 237.717 130.051 240.448 132.952 242.752C135.939 244.971 140.035 246.72 145.24 248C150.445 249.28 157.016 249.92 164.952 249.92C172.888 249.92 179.416 249.28 184.536 248C189.741 246.72 193.795 244.971 196.696 242.752C199.683 240.448 201.731 237.717 202.84 234.56C204.035 231.317 204.632 227.733 204.632 223.808ZM190.68 220.864C190.68 225.984 188.845 230.165 185.176 233.408C181.507 236.565 174.68 238.144 164.696 238.144C154.712 238.144 147.928 236.565 144.344 233.408C140.76 230.165 138.968 225.984 138.968 220.864V183.104C138.968 177.984 140.76 173.845 144.344 170.688C147.928 167.445 154.712 165.824 164.696 165.824C174.68 165.824 181.507 167.445 185.176 170.688C188.845 173.845 190.68 177.984 190.68 183.104V220.864ZM140.248 220.864C140.248 225.643 141.955 229.525 145.368 232.512C148.781 235.413 155.224 236.864 164.696 236.864C174.168 236.864 180.653 235.413 184.152 232.512C187.651 229.525 189.4 225.643 189.4 220.864V183.104C189.4 178.325 187.651 174.485 184.152 171.584C180.653 168.597 174.168 167.104 164.696 167.104C155.224 167.104 148.781 168.597 145.368 171.584C141.955 174.485 140.248 178.325 140.248 183.104V220.864ZM154.2 219.2V184.768C154.2 183.147 154.84 181.781 156.12 180.672C157.4 179.477 160.344 178.88 164.952 178.88C169.56 178.88 172.504 179.477 173.784 180.672C175.064 181.781 175.704 183.147 175.704 184.768V219.2C175.704 220.907 175.064 222.357 173.784 223.552C172.504 224.661 169.56 225.216 164.952 225.216C160.344 225.216 157.4 224.661 156.12 223.552C154.84 222.357 154.2 220.907 154.2 219.2ZM155.48 219.2C155.48 220.053 155.651 220.821 155.992 221.504C156.333 222.101 156.973 222.613 157.912 223.04V198.72C157.912 197.867 157.741 197.141 157.4 196.544C157.059 195.861 156.419 195.349 155.48 195.008V219.2ZM256.077 265.152C247.8 265.152 240.973 264.256 235.597 262.464C230.306 260.757 226.168 258.453 223.181 255.552C220.194 252.651 218.104 249.323 216.909 245.568C215.8 241.813 215.245 237.931 215.245 233.92V174.4C215.245 173.291 215.373 172.352 215.629 171.584C215.97 170.816 216.44 170.176 217.037 169.664L233.549 155.712C233.976 155.371 234.53 155.115 235.213 154.944C235.981 154.688 236.792 154.56 237.645 154.56H257.741C259.789 154.56 261.282 155.029 262.221 155.968C263.16 156.907 263.629 158.4 263.629 160.448V218.816C263.629 219.584 263.757 220.309 264.013 220.992C264.269 221.589 264.824 222.059 265.677 222.4V174.4C265.677 173.291 265.805 172.352 266.061 171.584C266.317 170.816 266.701 170.219 267.213 169.792L267.341 169.664L283.981 155.712C284.408 155.371 284.962 155.115 285.645 154.944C286.328 154.688 287.138 154.56 288.077 154.56H307.533C309.581 154.56 311.074 155.029 312.013 155.968C312.952 156.907 313.421 158.4 313.421 160.448V223.808C313.421 227.733 312.866 231.36 311.757 234.688C310.648 238.016 308.642 240.875 305.741 243.264L289.101 257.088C286.114 259.648 281.976 261.611 276.685 262.976C271.394 264.427 264.525 265.152 256.077 265.152ZM312.141 223.808V160.448C312.141 158.827 311.757 157.675 310.989 156.992C310.306 156.224 309.154 155.84 307.533 155.84H288.077C286.456 155.84 285.261 156.224 284.493 156.992C283.81 157.675 283.469 158.827 283.469 160.448V218.816C283.469 220.523 282.829 221.973 281.549 223.168C280.269 224.277 277.368 224.832 272.845 224.832C268.408 224.832 265.549 224.277 264.269 223.168C262.989 221.973 262.349 220.523 262.349 218.816V160.448C262.349 158.827 261.965 157.675 261.197 156.992C260.514 156.224 259.362 155.84 257.741 155.84H237.645C236.024 155.84 234.829 156.224 234.061 156.992C233.378 157.675 233.037 158.827 233.037 160.448V223.808C233.037 227.733 233.592 231.317 234.701 234.56C235.896 237.717 237.944 240.448 240.845 242.752C243.832 244.971 247.885 246.72 253.005 248C258.125 249.28 264.653 249.92 272.589 249.92C280.525 249.92 287.053 249.28 292.173 248C297.293 246.72 301.304 244.971 304.205 242.752C307.192 240.448 309.24 237.717 310.349 234.56C311.544 231.317 312.141 227.733 312.141 223.808ZM247.117 167.36H248.397V220.736C248.397 225.515 250.061 229.397 253.389 232.384C256.802 235.285 263.245 236.736 272.717 236.736C282.189 236.736 288.632 235.285 292.045 232.384C295.458 229.397 297.165 225.515 297.165 220.736V167.36H298.445V220.736C298.445 225.856 296.653 230.037 293.069 233.28C289.485 236.437 282.701 238.016 272.717 238.016C262.733 238.016 255.949 236.437 252.365 233.28C248.866 230.037 247.117 225.856 247.117 220.736V167.36Z" fill="#3A3D46"/>
</svg>
